<svg width="497" height="497" viewBox="0 0 497 497" fill="none" xmlns="http://www.w3.org/2000/svg">
<path d="M464.079 195.135C463.434 195.081 399.296 189.274 368.017 154.422C367.698 154.066 367.218 153.901 366.746 153.99C366.274 154.077 365.886 154.403 365.715 154.85C365.623 155.089 356.393 178.991 337.295 202.559C325.928 216.592 309.435 232.36 287.82 241.726C279.595 234.296 267.791 220.282 268.659 201.597C268.688 200.92 268.222 200.321 267.556 200.188C266.898 200.058 266.228 200.426 265.997 201.063C264.358 205.561 258.694 217.235 252.254 217.235C251.655 217.235 248.362 215.663 247.78 215.663C247.196 215.663 244.437 217.235 243.9 217.235C237.46 217.235 231.795 205.561 230.157 201.063C229.927 200.425 229.257 200.058 228.598 200.188C227.932 200.321 227.466 200.92 227.495 201.597C228.363 220.282 216.558 234.296 208.334 241.726C186.717 232.36 170.227 216.591 158.859 202.559C139.761 178.991 130.531 155.089 130.439 154.85C130.268 154.403 129.877 154.077 129.408 153.99C128.933 153.901 128.455 154.066 128.135 154.422C96.862 189.274 32.724 195.081 32.079 195.135C31.38 195.195 30.839 195.77 30.823 196.47C30.806 197.171 31.321 197.771 32.014 197.863C78.797 204.042 82.819 245.181 82.969 246.929C83.001 247.307 83.189 247.657 83.487 247.89C83.784 248.126 84.165 248.226 84.544 248.17C108.821 244.481 127.155 248.812 138.587 260.92C152.673 275.838 151.585 297.742 151.575 297.961C151.548 298.401 151.735 298.826 152.078 299.105C152.419 299.384 152.877 299.482 153.301 299.366C162.402 296.92 171.058 295.679 179.029 295.679C238.205 295.679 246.639 364.279 246.717 364.971C246.725 365.032 246.755 365.083 246.77 365.141C246.791 365.229 246.81 365.316 246.848 365.397C246.883 365.471 246.93 365.532 246.977 365.598C247.028 365.668 247.073 365.739 247.135 365.799C247.194 365.856 247.264 365.897 247.332 365.943C247.402 365.989 247.465 366.039 247.543 366.072C247.629 366.109 247.723 366.122 247.814 366.141C247.878 366.154 247.933 366.184 248 366.188C248.027 366.19 248.053 366.19 248.078 366.19H248.079H248.081C248.106 366.19 248.132 366.19 248.158 366.188C248.223 366.184 248.28 366.154 248.343 366.141C248.437 366.122 248.531 366.109 248.616 366.072C248.694 366.039 248.757 365.989 248.827 365.943C248.895 365.897 248.966 365.857 249.024 365.799C249.086 365.739 249.132 365.668 249.182 365.597C249.229 365.532 249.276 365.471 249.311 365.398C249.349 365.317 249.368 365.23 249.389 365.141C249.404 365.083 249.434 365.033 249.442 364.972C249.519 364.28 257.954 295.68 317.13 295.68C325.101 295.68 333.757 296.92 342.858 299.367C343.282 299.483 343.737 299.385 344.08 299.106C344.421 298.828 344.608 298.403 344.584 297.962C344.572 297.743 343.486 275.84 357.572 260.921C369.004 248.813 387.336 244.482 411.615 248.171C411.994 248.227 412.375 248.127 412.672 247.891C412.97 247.657 413.158 247.308 413.19 246.93C413.336 245.181 417.362 204.043 464.144 197.864C464.838 197.772 465.352 197.172 465.336 196.471C465.32 195.77 464.778 195.195 464.079 195.135Z" fill="#212120"/>
<path d="M242.52 241.121L235.627 228.303C235.496 228.058 235.224 227.922 234.954 227.946C234.678 227.974 234.445 228.165 234.365 228.431L231.404 238.286C231.293 238.649 231.5 239.031 231.863 239.14L241.718 242.104C241.782 242.123 241.849 242.133 241.915 242.133C242.117 242.133 242.313 242.043 242.446 241.881C242.624 241.665 242.651 241.366 242.52 241.121Z" fill="#F6921E"/>
<path d="M253.638 241.121L260.531 228.303C260.662 228.058 260.934 227.922 261.203 227.946C261.48 227.974 261.713 228.165 261.793 228.431L264.754 238.286C264.865 238.649 264.658 239.031 264.295 239.14L254.44 242.104C254.376 242.123 254.309 242.133 254.243 242.133C254.041 242.133 253.845 242.043 253.712 241.881C253.534 241.665 253.507 241.366 253.638 241.121Z" fill="#F6921E"/>
</svg>
